<svg xmlns="http://www.w3.org/2000/svg" viewBox="0 0 139.61 119.57"><defs><style>.cls-1{fill:#fff;}</style></defs><g id="Capa_2" data-name="Capa 2"><g id="Capa_1-2" data-name="Capa 1"><g id="JrDURi.tif"><path class="cls-1" d="M69.91,49.81c22.41,0,44.81,0,67.22,0,2,0,2.51.48,2.45,2.45-.14,5-.14,10,0,14.93.06,2-.41,2.64-2.55,2.63-15.35-.11-30.7-.06-46.06-.06q-44.19,0-88.37,0C.5,69.78,0,69.24,0,67.17c.16-5,.14-10,0-14.92,0-1.91.41-2.49,2.42-2.49C24.93,49.84,47.42,49.81,69.91,49.81Z"/><path class="cls-1" d="M69.68,119.52c-22.32,0-44.65,0-67,0-2.22,0-2.78-.54-2.7-2.72.18-4.89.15-9.79,0-14.68-.06-2,.44-2.64,2.57-2.62,15.18.1,30.37,0,45.55,0q44.45,0,88.88,0c2.11,0,2.64.56,2.58,2.61-.16,5-.14,10,0,14.93,0,1.92-.43,2.48-2.43,2.47C114.66,119.49,92.17,119.52,69.68,119.52Z"/><path class="cls-1" d="M69.7,19.83c-22.41,0-44.83,0-67.24.05C.39,19.89,0,19.27,0,17.38.14,12.49.15,7.59,0,2.69,0,.65.55,0,2.65,0c15,.09,29.89,0,44.83,0,29.64,0,59.28,0,88.92-.06,2.48,0,3.32.54,3.2,3.14-.22,4.8-.16,9.63,0,14.44.06,1.93-.57,2.29-2.38,2.29C114.7,19.8,92.2,19.83,69.7,19.83Z"/></g></g></g></svg>