<svg xmlns="http://www.w3.org/2000/svg" viewBox="0 0 96.61 96.82"><defs><style>.cls-1{fill:#fff;}</style></defs><g id="Capa_2" data-name="Capa 2"><g id="Capa_1-2" data-name="Capa 1"><g id="_2GXSAW.tif" data-name="2GXSAW.tif"><path class="cls-1" d="M83.27,96.82c-.89-.15-1.27-.85-1.76-1.35C71.05,85,60.57,74.64,50.22,64.11c-1.58-1.6-2.35-1.51-3.87,0C36,74.65,25.48,85,15.1,95.53c-1.32,1.34-2,1.35-3.31,0Q6.47,90,.89,84.63c-1.32-1.26-1.06-2,.07-3.16,10.11-10.66,20.81-20.72,31.27-31,1.66-1.63,1.87-2.49.09-4.24-10.49-10.27-20.81-20.72-31.27-31C-.41,13.76-.21,13,1.13,11.72Q6.62,6.47,11.86,1C13-.25,13.7-.31,15,.92,25.65,11,35.74,21.69,46,32.15c1.7,1.72,2.57,2,4.41.09C60.81,21.72,71,11,81.68.83c1.24-1.18,1.86-1,2.94.06C88.26,4.64,91.93,8.36,95.71,12c1.32,1.25,1.09,1.92-.08,3.09C85.13,25.44,74.73,35.92,64.2,46.27c-1.64,1.61-1.61,2.45,0,4C74.74,60.67,85.5,70.79,95.66,81.52c1.17,1.24,1.29,1.9,0,3.13-3.77,3.61-7.41,7.36-11.11,11C84.15,96.11,83.69,96.46,83.27,96.82Z"/></g></g></g></svg>