<svg xmlns="http://www.w3.org/2000/svg" xmlns:xlink="http://www.w3.org/1999/xlink" viewBox="0 0 1328.77 701.33"><defs><style>.cls-1,.cls-4{fill:none;}.cls-2{clip-path:url(#clip-path);}.cls-3{fill:#3d3e42;}.cls-4{stroke:#6c5f4b;stroke-miterlimit:10;}.cls-5{fill:#6c5f4b;}</style><clipPath id="clip-path" transform="translate(105.68)"><rect class="cls-1" width="1093.87" height="701.33"/></clipPath></defs><g id="Capa_2" data-name="Capa 2"><g id="Capa_1-2" data-name="Capa 1"><g class="cls-2"><rect class="cls-3" x="105.68" width="1093.87" height="701.33"/><polygon class="cls-4" points="560.82 186.87 502.15 158.86 556.18 121.39 556.18 121.39 560.82 186.87"/><polygon class="cls-4" points="797.53 522.66 738.86 494.65 792.89 457.18 792.89 457.18 797.53 522.66"/><polygon class="cls-4" points="1094.28 183.52 1076.33 121.03 1140.21 136.62 1140.21 136.62 1094.28 183.52"/><polygon class="cls-4" points="408.09 675.03 390.14 612.54 454.02 628.13 454.02 628.13 408.09 675.03"/><polygon class="cls-4" points="379.97 681.68 362.02 619.2 425.9 634.79 425.9 634.79 379.97 681.68"/><polygon class="cls-4" points="125.33 249.27 65.59 223.64 118.08 184.03 118.08 184.03 125.33 249.27"/><circle class="cls-5" cx="154.47" cy="457.37" r="6.6"/><circle class="cls-5" cx="105.68" cy="457.37" r="6.6"/><circle class="cls-5" cx="55.39" cy="457.37" r="6.6"/><circle class="cls-5" cx="6.6" cy="457.37" r="6.6"/><circle class="cls-5" cx="154.47" cy="530.64" r="6.6"/><circle class="cls-5" cx="105.68" cy="530.64" r="6.6"/><circle class="cls-5" cx="55.39" cy="530.64" r="6.6"/><circle class="cls-5" cx="6.6" cy="530.64" r="6.6"/><circle class="cls-5" cx="154.47" cy="603.15" r="6.6"/><circle class="cls-5" cx="105.68" cy="603.15" r="6.6"/><circle class="cls-5" cx="55.39" cy="603.15" r="6.6"/><circle class="cls-5" cx="6.6" cy="603.15" r="6.6"/><circle class="cls-5" cx="154.47" cy="676.42" r="6.6"/><circle class="cls-5" cx="105.68" cy="676.42" r="6.6"/><circle class="cls-5" cx="55.39" cy="676.42" r="6.6"/><circle class="cls-5" cx="6.6" cy="676.42" r="6.6"/><circle class="cls-5" cx="1322.17" cy="263.62" r="6.6"/><circle class="cls-5" cx="1273.38" cy="263.62" r="6.6"/><circle class="cls-5" cx="1223.09" cy="263.62" r="6.6"/><circle class="cls-5" cx="1174.3" cy="263.62" r="6.6"/><circle class="cls-5" cx="1322.17" cy="336.89" r="6.6"/><circle class="cls-5" cx="1273.38" cy="336.89" r="6.6"/><circle class="cls-5" cx="1223.09" cy="336.89" r="6.6"/><circle class="cls-5" cx="1174.3" cy="336.89" r="6.6"/><circle class="cls-5" cx="1322.17" cy="409.39" r="6.6"/><circle class="cls-5" cx="1273.38" cy="409.39" r="6.6"/><circle class="cls-5" cx="1223.09" cy="409.39" r="6.6"/><circle class="cls-5" cx="1174.3" cy="409.39" r="6.6"/><circle class="cls-5" cx="1322.17" cy="482.66" r="6.6"/><circle class="cls-5" cx="1273.38" cy="482.66" r="6.6"/><circle class="cls-5" cx="1223.09" cy="482.66" r="6.6"/><circle class="cls-5" cx="1174.3" cy="482.66" r="6.6"/></g></g></g></svg>