<svg xmlns="http://www.w3.org/2000/svg" viewBox="0 0 154.46 150.43"><defs><style>.cls-1{fill:#fff;}.cls-2{fill:#434e6a;}.cls-3{fill:#505a73;}.cls-4{fill:#46516b;}.cls-5{fill:#384562;}.cls-6{fill:#45516c;}.cls-7{fill:#364360;}</style></defs><g id="Capa_2" data-name="Capa 2"><g id="Capa_1-2" data-name="Capa 1"><g id="zLcL8b.tif"><path class="cls-1" d="M62.46,106.73a19.37,19.37,0,0,0-4,8.43,2.36,2.36,0,0,1-1.89,2c-11.12,3.06-15.3,1.43-21.64-7.66a18.08,18.08,0,0,0-8.53-6.91,5.25,5.25,0,0,0-3.85-.33c-.81.3-2-.08-2.3,1.08S21,105,21.7,105.52c5.25,4,8.6,9.23,11.19,15.21,1.69,3.92,5.24,5.83,9.36,6.64a38.4,38.4,0,0,0,13.85.55c1.76-.3,2.12.42,2.1,2-.08,5.23,0,10.46,0,15.69,0,4-2.11,5.62-5.93,4.38a72.77,72.77,0,0,1-26-14.77A76.27,76.27,0,0,1,2.19,94.9a81,81,0,0,1,.19-38.2C6.85,38.22,17,23.69,32.54,12.91,42.25,6.18,53.16,2.45,64.85.85c17.83-2.44,34.84.34,50.52,9,17.94,9.94,30.47,24.85,35.92,44.75,6.56,24,3,46.79-11.07,67.44C131,135.54,118.33,144.78,102.81,150c-3.81,1.28-5.87-.29-5.88-4.35,0-8,.11-15.94-.06-23.91-.11-5-.5-10.13-4-14.3-1.08-1.27.21-1.33.95-1.43,3-.42,6.06-.76,9.07-1.43,6.6-1.49,12.66-3.83,17.37-9,4.51-4.92,6-11,6.63-17.32.49-4.92,1-9.89-.88-14.74a23.73,23.73,0,0,0-5.11-8.14,3.37,3.37,0,0,1-1-3.71,30.22,30.22,0,0,0-.49-17.16c-.68-2.27-1.93-2.65-3.83-2.4-4.42.59-8.82,1.79-12.21,4.56-4.41,3.61-8.77,3.63-14,2.49a62.78,62.78,0,0,0-24.47,0c-1.79.33-3.58.69-5.36,1.1a4,4,0,0,1-3-.72c-4.69-2.59-9.07-5.86-14.46-7-.32-.07-.63-.21-.95-.27C37,31.5,36.31,32,35.22,36A33.33,33.33,0,0,0,35,51.79c.19.88.53,1.69-.27,2.54C27.49,62,27.6,71.23,29.1,80.74c.94,6,2.47,11.71,7,16.13,3.54,3.48,8.2,4.88,12.63,6.69,3.66,1.49,7.54,1.89,11.41,2.34C60.92,106,61.81,105.89,62.46,106.73Z"/><path class="cls-2" d="M37.83,115.65c1.1.19,1.6.76,1.54,1.73,0,.59-.18,1.25-1,1.05a1.85,1.85,0,0,1-1.48-1.75A.88.88,0,0,1,37.83,115.65Z"/><path class="cls-3" d="M44.9,120.38c-.15.65-.5,1.09-1.16,1.05-.84-.05-1.62-.43-1.6-1.38a1,1,0,0,1,1.23-.91C44.09,119.25,44.76,119.53,44.9,120.38Z"/><path class="cls-4" d="M49.83,120c.67,0,1.36.24,1.45,1,.12.94-.66,1.25-1.38,1.27a1.25,1.25,0,0,1-1.38-1.11A1.16,1.16,0,0,1,49.83,120Z"/><path class="cls-5" d="M57.24,120.39a1.71,1.71,0,0,1-1.7,1.15,1,1,0,0,1-1.11-1.06c.07-.92.89-1,1.63-1C56.65,119.48,57.16,119.68,57.24,120.39Z"/><path class="cls-6" d="M35.28,112.73c0,.59-.19,1.17-.74,1.14a1.38,1.38,0,0,1-1.32-1.51c0-.56.12-1,.82-.91A1.4,1.4,0,0,1,35.28,112.73Z"/><path class="cls-7" d="M32,108.59c-.08.56-.49.58-.88.52a1.06,1.06,0,0,1-.88-1c-.09-.57.33-.67.73-.66C31.69,107.48,31.84,108.05,32,108.59Z"/></g></g></g></svg>