<svg xmlns="http://www.w3.org/2000/svg" viewBox="0 0 139.69 139.77"><defs><style>.cls-1{fill:#fff;}</style></defs><g id="Capa_2" data-name="Capa 2"><g id="Capa_1-2" data-name="Capa 1"><g id="aoUZP9.tif"><path class="cls-1" d="M139.69,69.69c-.19-10.63.24-21.5-.6-32.37C137.45,16.14,121.49,1.81,101.88.74c-18.66-1-37.35-.85-56-.32C40.39.57,34.91.57,29.57,2.15,16.64,6,7.53,13.86,2.88,26.7.68,32.77.81,39.12.48,45.38-.31,60.8.06,76.25.27,91.68a89.34,89.34,0,0,0,1,14.64c3.41,19.05,17.05,31.36,36.4,32.45,22.71,1.27,45.46,1.54,68.17-.44,9.09-.79,16.6-5.24,22.75-11.64,6.58-6.85,9.87-15.36,10.54-24.9C139.9,91.18,139.53,80.55,139.69,69.69ZM126.6,99.84c-.45,6.32-1.8,12.41-6.16,17.51-4.71,5.52-10.7,8.17-17.73,8.86-18.4,1.8-36.85.82-55.27.82a77.08,77.08,0,0,1-14.1-1.44A23.91,23.91,0,0,1,14,105.71c-1.79-11.2-1.2-22.52-1.55-33.79,0-.83,0-1.66,0-2.49h-.14c.26-9.63.39-19.26.8-28.88.37-8.77,3-16.56,10.39-22.15,4.32-3.26,9.3-4.32,14.42-4.77,19-1.68,38-1.14,57-.56a53.06,53.06,0,0,1,13.78,1.79c9.49,2.87,15.15,9.36,17,19.09,1.34,6.89,1.36,13.89,1.47,20.84C127.49,69.8,127.66,84.84,126.6,99.84Z"/><path class="cls-1" d="M107.24,24.58a8.23,8.23,0,0,1,8.32,8.08A8.78,8.78,0,0,1,107.23,41,8.37,8.37,0,0,1,99,32.69,7.88,7.88,0,0,1,107.24,24.58Z"/><path class="cls-1" d="M70,34.33C49.78,34.21,34.23,49.86,34.23,70c0,20.45,16.23,35,35.65,35.73C89.4,105,105.51,90.39,105.53,70,105.54,50.3,90.62,34.45,70,34.33Zm0,58.89c-13.51.09-23.35-10.13-23.34-23.34,0-13.38,10.1-23.14,23.27-23.1,13.36,0,22.89,9.87,23.34,23.16C92.75,82.8,83.73,93.13,70,93.22Z"/></g></g></g></svg>