<svg xmlns="http://www.w3.org/2000/svg" viewBox="0 0 139.58 139.58"><defs><style>.cls-1{fill:#fff;}</style></defs><g id="Capa_2" data-name="Capa 2"><g id="Capa_1-2" data-name="Capa 1"><path class="cls-1" d="M139.56,69.84q0-29.52,0-59c0-6.72-3.4-10.28-10.1-10.73C128.37,0,127.29,0,126.21,0H13.35c-1.24,0-2.49,0-3.73.13C3.36.68,0,4.26,0,10.54,0,20.26,0,30,0,39.68Q0,84.14,0,128.6c0,6.72,3.28,10.27,10,10.86,1.15.1,2.32.12,3.48.12q56.31,0,112.62,0c1.81,0,3.63-.26,5.45-.37a7.76,7.76,0,0,0,6.12-3.76,12.41,12.41,0,0,0,1.93-7.32Q139.54,99,139.56,69.84ZM40.49,119.69c-5.56-.06-11.12-.1-16.68,0-1.84,0-2.4-.46-2.38-2.35.09-10.45,0-20.9,0-31.35,0-10.29,0-20.57,0-30.86,0-1.66.3-2.31,2.15-2.26,5.64.13,11.28.08,16.92,0,1.38,0,1.87.33,1.86,1.8q-.06,31.59,0,63.2C42.38,119.37,41.85,119.7,40.49,119.69ZM31.86,43.85A11.68,11.68,0,0,1,19.91,32.2,11.7,11.7,0,0,1,31.67,20.09,12.07,12.07,0,0,1,43.89,32.14,12.09,12.09,0,0,1,31.86,43.85Zm85.35,75.86c-5.31-.14-10.62-.12-15.93,0-1.76,0-2.23-.48-2.22-2.22.06-10.79,0-21.58,0-32.37a35.5,35.5,0,0,0-.87-6.89c-1.09-5.68-4.42-8.53-10.16-8.61S78,72.71,76.83,77.89a37.67,37.67,0,0,0-.9,8.14c0,10.37,0,20.75.07,31.12,0,1.9-.36,2.62-2.42,2.56-5.48-.15-11-.1-16.44,0-1.52,0-2-.41-2-2q0-31.48,0-63c0-1.6.57-1.91,2-1.88,5.31.09,10.63.11,15.94,0,1.73,0,2.14.54,2,2.13-.12,2,0,4.08,0,6.12,9-11.61,22.78-11.42,33.45-6.84,4.66,2,7.06,6.08,8.66,10.68a43.23,43.23,0,0,1,2.48,14.38c0,12.61,0,25.23,0,37.84C119.73,119.14,119.21,119.76,117.21,119.71Z"/></g></g></svg>