<svg xmlns="http://www.w3.org/2000/svg" viewBox="0 0 188.2 146.5"><defs><style>.cls-1{fill:#fff;}</style></defs><g id="Capa_2" data-name="Capa 2"><g id="Capa_1-2" data-name="Capa 1"><g id="OHE9iq.tif"><path class="cls-1" d="M0,99.28C.89,87.12,5.87,77,14.32,68.49c10.9-10.95,21.92-21.8,32.94-32.64A48.79,48.79,0,0,1,67.15,23.5c16.72-5.18,36.2.57,47.32,14.12C127.4,53.35,128.6,73,117.89,90.38c-2.3,3.75-4.8,6.78-9.62,6.71-7.18-.09-11.74-7.85-8.62-14.32,2-4.15,4.18-8.38,5.17-12.82,2.9-13-7.67-26.78-20.92-28.29-9.11-1-16.6,1.79-22.94,8.25C49.32,61.77,37.45,73.41,26,85.46c-10,10.52-7.23,29.37,5.11,37,8.64,5.35,17.46,5.54,26.44.65,2.77-1.51,5.29-3.72,8.92-3.22,4.58.63,7.79,2.91,8.87,6.76a9.83,9.83,0,0,1-3.92,11.19c-8.89,6.14-18.78,9.52-29.58,8.44C21,144.23,5.19,130.38,1.08,109.87A106.38,106.38,0,0,1,0,99.28Z"/><path class="cls-1" d="M110.37,124.6C91,126,71.13,112.33,65.5,93.75c-4.4-14.52-1.81-27.86,6.64-40.23A9.21,9.21,0,0,1,84.39,50.4c4.76,2.63,6.76,8,4.61,12.75-1.26,2.79-3,5.37-4.16,8.2-6,14.85,4.24,31.59,20.16,33.36A25.61,25.61,0,0,0,126.93,97q16.9-16.77,33.7-33.65a25.66,25.66,0,0,0,1.81-35c-7-8.64-20.68-11.18-30.57-5.67-1.59.89-3.15,1.85-4.77,2.69a10.08,10.08,0,0,1-12.77-3.31c-2.87-4.49-2.06-10,2.24-13,8.26-5.83,17.36-9.29,27.66-9a44.91,44.91,0,0,1,43.15,36.64c2.85,15.77-1.83,29.42-12.88,40.8S152.14,100,140.83,111.13C133.26,118.59,122.65,124.3,110.37,124.6Z"/></g></g></g></svg>