<svg xmlns="http://www.w3.org/2000/svg" viewBox="0 0 141.63 129.91"><defs><style>.cls-1{fill:#fff;}</style></defs><g id="Capa_2" data-name="Capa 2"><g id="Capa_1-2" data-name="Capa 1"><path class="cls-1" d="M139.72,126.13q-26.06-34.71-52.2-69.36c-1.1-1.45-1.24-2.37.07-3.78,3.34-3.58,6.5-7.32,9.73-11Q114.65,22.28,132,2.54c.51-.58,1.52-1.14,1.06-2-.36-.73-1.35-.34-2.05-.35-5.48,0-11,.06-16.44,0a5,5,0,0,0-4.23,2c-10.87,12.53-21.85,25-32.71,37.51-1.46,1.69-2.14,1.57-3.44-.16C64.79,27,55.29,14.64,45.89,2.2A4.55,4.55,0,0,0,41.77.09C35.21.2,28.65.14,22.09.14,15.7.14,9.3.12,2.91.15,2,.16.57-.36.13.48c-.55,1,.77,1.87,1.38,2.67Q26.62,36.09,51.82,69c1.16,1.52,1.45,2.55,0,4.16C45.31,80.33,39,87.66,32.56,95Q18.27,111.23,4,127.49c-.47.54-1.34,1.08-1,1.85s1.33.38,2,.39c5.32,0,10.63-.07,16,.06a5.87,5.87,0,0,0,5.1-2.27C38,113.78,50,100.15,61.84,86.42c1.48-1.72,2.2-1.67,3.58.15C75.81,100.33,86.34,114,96.75,127.74a4.57,4.57,0,0,0,4.12,2c12.38-.08,24.75,0,37.12-.06,1.22,0,3,.59,3.5-.34C142.1,128.19,140.48,127.14,139.72,126.13Zm-24.87-9.54c-3.24,0-6.47,0-9.71,0-1.19,0-1.65-1-2.24-1.78L62.7,62.28,26.61,15.05c-.49-.64-1.39-1.33-1.1-2.1s1.46-.4,2.23-.45c1.32-.07,2.65,0,4,0,4.66-1.28,7.17,1.27,9.79,4.75q36.42,48.38,73.11,96.55a14,14,0,0,1,1,1.41C116.16,116.07,116,116.6,114.85,116.59Z"/></g></g></svg>